<?xml version="1.0" encoding="utf-8"?>
<!-- Generator: Adobe Illustrator 27.5.0, SVG Export Plug-In . SVG Version: 6.00 Build 0)  -->
<svg version="1.1" xmlns="http://www.w3.org/2000/svg" xmlns:xlink="http://www.w3.org/1999/xlink" x="0px" y="0px"
	  style="enable-background:new 0 0 500 500;" xml:space="preserve">
<g id="BACKGROUND">
	<g id="background">
		<rect style="fill:#FFFFFF;" width="500" height="500"/>
	</g>
</g>
<g id="OBJECTS">
	<g>
		<path style="fill:#1D3557;" d="M88.015,231.88c-0.988-4.094-7.322-3.848-7.447,2.798c-0.002,0.1-0.223,2.99,0.507,1.752
			c0.601-1.022,2.114-0.326,3.23-0.289C86.782,236.22,88.495,233.868,88.015,231.88z M86.385,232.971
			c-0.812,2.517-2.853,1.104-4.525,1.295C83.644,228.476,86.769,231.301,86.385,232.971z"/>
		<path style="fill:#1D3557;" d="M86.022,230.705c-0.167-1.28-2.215-2.215-3.369-0.366c-0.296,0.593-0.335,2.646,1.191,2.925
			C84.794,233.438,86.513,232.089,86.022,230.705z"/>
		<path style="fill:#1D3557;" d="M96.627,258.364c-4.302,1.137-20.366,21.376-27.745,16.879c-1.246-0.759,1.061,3.49,7.711-0.214
			c-0.881,5.194,8.537,9.33,20.53-16.062C97.262,258.673,96.945,258.28,96.627,258.364z M83.469,276.472
			c-3.571,2.946-6.167,0.452-5.748-1.269c0.611-2.512,4.691-2.67,15.041-13.036C101.537,253.376,88.029,272.711,83.469,276.472z"/>
		<path style="fill:#1D3557;" d="M69.935,268.968c2.233-0.712,1.734-2.959-0.002-4.56c-3.769-3.477-10.074-2.23-11.239,1.171
			c-1.194,3.485,2.951,5.996,2.957,4.753c-0.03-0.885,1.088,0.823,1.561,1.576c2.107,3.363,5.945,3.964,6.417,3.237
			C71.843,271.671,67.221,269.832,69.935,268.968z M68.917,271.152c1.18,1.903-0.024,3.655,0.108,3.934
			c-5.267-0.64-7.142-8.021-7.915-5.152c-3.378-1.519-2.606-6.699,3.052-6.945c4-0.173,6.838,2.817,6.547,4.442
			C70.424,269.016,66.802,267.742,68.917,271.152z"/>
		<path style="fill:#1D3557;" d="M63.118,266.924c-3.166,0.391-2.384,0.986-2.147,0.917c2.09-0.611,3.876-0.274,4.363-0.303
			C65.908,267.502,65.711,266.603,63.118,266.924z"/>
		<path style="fill:#1D3557;" d="M69.45,275.843c-0.22-0.449-2.39-1.509-4.076-4.521c-0.611-1.093-0.434,1.934,3.236,4.461
			C69.429,276.346,69.515,275.976,69.45,275.843z"/>
		<path style="fill:#1D3557;" d="M68.714,232.914c-0.125-0.261-0.567-0.072-0.469,0.202c1.927,5.398-2.028,9.94-3.445,14.885
			c-0.728,2.541-0.931,5.191-1.765,7.709c-0.995,3.003-2.626,5.689-3.796,8.606c-0.402,1.002,1.925-1.966,3.999-7.555
			c1.066-2.873,1.301-5.909,2.203-8.817C66.922,243.166,71.201,238.096,68.714,232.914z"/>
		<path style="fill:#1D3557;" d="M91.019,265.367c-1.128,1.015-3.771,4.385-5.685,6.432c-5.942,6.356-6.834-0.038-6.427,2.034
			c0.291,1.471,2.538,2.397,5.817-0.464c1.111-0.969,5.961-6.488,6.689-7.576C91.581,265.544,91.285,265.128,91.019,265.367z"/>
		<path style="fill:#1D3557;" d="M78.925,226.052c0.846-1.007-3.005,1.751-1.145,5.171
			C78.455,232.467,76.714,228.686,78.925,226.052z"/>
		<path style="fill:#1D3557;" d="M78.888,228.11c0.045,1.306,0.462-2.311,2.605-3.854C82.589,223.466,78.774,224.767,78.888,228.11z
			"/>
		<path style="fill:#1D3557;" d="M83.406,223.751c-2.794,1.528-2.574,3.341-2.032,2.619c0.396-0.53,0.931-1.5,2.221-2.35
			C83.775,223.9,83.587,223.651,83.406,223.751z"/>
		<path style="fill:#1D3557;" d="M85.59,224.505c-0.253-0.474-2.033,1.171-2.218,1.417C81.734,228.092,85.758,224.818,85.59,224.505
			z"/>
		<path style="fill:#1D3557;" d="M87.161,225.717c-2.341,0.744-1.587,1.175-0.486,0.743
			C87.954,225.956,87.356,225.654,87.161,225.717z"/>
		<path style="fill:#1D3557;" d="M89.168,227.314c-1.376-0.651-1.973,0.932-0.907,0.417
			C88.704,227.518,89.586,227.511,89.168,227.314z"/>
		<path style="fill:#1D3557;" d="M74.226,253.367c-1.735-0.558-2.478,1.302-1.786,0.749c0.536-0.429,1.086-0.5,1.762-0.448
			C74.349,253.68,74.423,253.43,74.226,253.367z"/>
		<path style="fill:#1D3557;" d="M74.498,251.741c-0.509-0.311-1.966,0.424-1.576,0.736c0.205,0.163,0.255-0.194,0.814-0.379
			C73.924,252.036,74.956,252.021,74.498,251.741z"/>
		<path style="fill:#1D3557;" d="M74.934,250.128c-0.482-0.111-2.445,0.885-1.635,0.69C73.83,250.69,75.677,250.301,74.934,250.128z
			"/>
		<path style="fill:#1D3557;" d="M74.87,248.266c-1.91,0.397-1.916,0.788-0.657,0.475C75.159,248.507,75.048,248.229,74.87,248.266z
			"/>
		<path style="fill:#1D3557;" d="M94.205,241.277c-1.375,0.615-3.025,0.587-4.313-0.225c-0.202-0.128-0.431,0.168-0.227,0.299
			C92.794,243.351,95.285,240.796,94.205,241.277z"/>
		<path style="fill:#1D3557;" d="M95.774,239.392c-0.993,0.694-2.038,0.711-2.875,0.22c-0.17-0.1-0.351,0.194-0.181,0.298
			C95.197,241.419,96.826,238.656,95.774,239.392z"/>
		<path style="fill:#1D3557;" d="M97.877,237.065c-0.943,0.767-2.212,1.112-3.396,0.782c-0.146-0.041-0.208,0.178-0.065,0.225
			C97.374,239.053,98.838,236.284,97.877,237.065z"/>
		<path style="fill:#1D3557;" d="M97.881,234.972c-0.674,0.462-1.127,0.781-2.048,0.93c-0.159,0.026-0.329,0.574,1.166-0.032
			C98.508,235.26,98.093,234.827,97.881,234.972z"/>
		<path style="fill:#1D3557;" d="M98.077,232.869c-0.324-0.326-0.582,0.83-1.947,0.668c-0.357-0.042-0.325,0.712,1.062,0.223
			C97.549,233.633,98.326,233.119,98.077,232.869z"/>
		<path style="fill:#1D3557;" d="M129.644,181.608c-7.976-19.888-25.991-7.048-26.237,9.887c-0.045,3.147-0.13-12.503,11.077-18.681
			c4.097-2.258,11.304-0.178,14.498,8.602c2.455,6.749,9.07,3.513,5.713,15.337c-0.11,0.388,0.479,0.627,0.588,0.234
			C138.701,184.671,131.984,187.445,129.644,181.608z"/>
		<path style="fill:#1D3557;" d="M118.698,177.053c-13.408,3.113-11.774,24.023-5.85,14.726c0.185,1.221,0.061,2.412-0.409,3.583
			c-0.394,0.982,2.41-0.713,3.306-1.496c-0.152,1.816-1.081,3.197-0.321,2.788c1.653-0.889,2.552-1.876,1.201,1.309
			c-0.465,1.098,2.667-1.544,1.151,1.639c-0.123,0.259,0.301,0.395,0.423,0.14c0.285-0.598,0.821-2.552,0.212-2.382
			c-1.954,0.548-0.927,0.714-0.629-2.095c0.063-0.59-0.91,0.1-2.034,0.704c0.38-1.059,0.799-3.478,0.105-2.801
			c-0.834,0.815-1.775,1.422-2.833,1.866c0.422-1.281,0.496-2.582,0.184-3.921c-0.155-0.667-0.809,0.465-1.469,1.374
			c-3.805,5.236-5.371-11.856,7.058-15.145C118.985,177.291,118.887,177.009,118.698,177.053z"/>
		<path style="fill:#1D3557;" d="M130.302,186.698c-0.173-0.291-1.234,0.291-1.413,0.389c-0.326,0.18-0.084,0.508,0.142,0.402
			C128.931,187.525,130.538,187.095,130.302,186.698z"/>
		<path style="fill:#1D3557;" d="M131.542,188.069c-1.539-0.227-2.492,0.897-0.66,0.515
			C131.926,188.366,131.691,188.092,131.542,188.069z"/>
		<path style="fill:#1D3557;" d="M131.327,189.533c-0.829,0.259-0.423,0.613-0.232,0.579
			C132.808,189.811,133.508,188.853,131.327,189.533z"/>
		<g>
			<path style="fill:#1D3557;" d="M131.833,191.038c-0.263,0.164-0.132,0.729,0.515,0.547
				C134.73,190.925,133.653,189.908,131.833,191.038z"/>
			<path style="fill:#1D3557;" d="M132.094,191.617L132.094,191.617C132.067,191.619,132.051,191.621,132.094,191.617z"/>
		</g>
		<path style="fill:#1D3557;" d="M133.987,192.863c-1.834-0.863-3.384,0.269-1.042,0.368c0.772,0.032,1.059,0.362,1.183-0.026
			C134.17,193.074,134.116,192.924,133.987,192.863z"/>
		<path style="fill:#1D3557;" d="M115.025,183.748c-0.582,0.986-0.122,0.986-0.006,0.842
			C117.048,182.068,117.143,180.145,115.025,183.748z"/>
		<path style="fill:#1D3557;" d="M117.302,183.25c-0.63-0.95-2.118,2.847-0.943,1.436c0.173-0.208,0.192-0.429,0.581-0.834
			C117.165,183.618,117.453,183.478,117.302,183.25z"/>
		<path style="fill:#1D3557;" d="M118.631,183.435c-0.447-0.362-2.393,2.731-0.873,1.408
			C117.888,184.73,118.939,183.684,118.631,183.435z"/>
		<path style="fill:#1D3557;" d="M118.029,185.493c-0.492,0.493-0.267,1.092,0.579,0.246
			C120.377,183.97,120.162,183.365,118.029,185.493z"/>
		<path style="fill:#1D3557;" d="M121.42,186.273c-0.236-0.502-1.951,0.762-0.462,0.397
			C121.187,186.614,121.52,186.486,121.42,186.273z"/>
		<path style="fill:#1D3557;" d="M155.888,220.383c-0.113-0.309-0.578-0.188-0.497,0.138c4.806,19.307-2.562,31.657-12.641,36.019
			c-0.705-2.75-1.429-1.258-3.259,0.876c-0.263-0.495-1.123-1.495-1.407-1.013c-1.603,2.719-1.025,2.567-2.522,1.087
			c-0.27-0.267-0.33-0.035-2.346,2.665c-1.013-1.184-1.238-1.579-1.463-1.286c-4.102,5.332-0.308,1.879-4.66,1.25
			c-3.873-0.56-12.188,8.216-14.264,11.823c-0.703-0.059,0.154,2.032-1.884,4.475c-0.482-1.154-2.014-2.704-2.264-2.116
			c-1.937,4.569-0.732,3.149-2.498,1.602c-0.647-0.566-0.13,1.254-1.969,3.274c-0.261-0.712-1.377-1.854-1.607-1.23
			c-2.505,6.808-0.839-2.243-8.131-1.422c-3.723,0.419-6.422,4.691-12.77,2.497c-1.121-0.388,0.862,1.497,5.016,0.866
			c3.989-0.605,6.395-3.982,10.31-2.558c4.751,1.728,3.239,7.852,5.932,1.057c0.47,0.322,0.781,0.777,0.899,1.354
			c0.177,0.868,1.824-1.238,2.281-3.164c1.702,1.805,0.531,3.742,2.871-1.762c0.776,0.53,1.314,1.228,1.609,2.153
			c0.308,0.965,2.533-2.206,2.385-4.722c0.096-0.1,5.931-8.22,11.482-11.08c1.684-0.867,4.458-0.836,4.857,1.513
			c0.162,0.956,0.917-0.988,2.604-3.225c1.001,1.172,1.237,1.58,1.46,1.282c2.4-3.211,1.685-2.987,3.214-1.472
			c0.308,0.305,0.406-0.068,1.768-2.374c0.832,0.575,0.81,1.654,1.222,1.18c1.789-2.059,2.454-3.327,2.661-1.122
			C142.58,258.976,165.346,246.184,155.888,220.383z"/>
		<path style="fill:#1D3557;" d="M98.354,274.587c-0.965-1.107-2.918-0.137-2.6,0.272c0.196,0.252,1.011-0.979,2.349-0.03
			C98.256,274.938,98.493,274.745,98.354,274.587z"/>
		<path style="fill:#1D3557;" d="M96.951,273.111c-0.227,0.085-0.084,0.425,0.143,0.346c0.698-0.241,1.201,0.002,1.722,0.259
			C99.531,274.068,98.738,272.44,96.951,273.111z"/>
		<path style="fill:#1D3557;" d="M99.676,272.434c-1.443-0.812-2.647-0.564-0.483,0.214
			C99.936,272.914,99.784,272.495,99.676,272.434z"/>
		<path style="fill:#1D3557;" d="M99.935,271.484c0.449,0.168,0.51,0.495,0.697,0.319C101.287,271.182,97.781,270.69,99.935,271.484
			z"/>
		<path style="fill:#1D3557;" d="M147.557,246.929c-0.343-1.095,0.211,1.819-0.989,3.461
			C145.919,251.278,148.462,249.801,147.557,246.929z"/>
		<path style="fill:#1D3557;" d="M149.558,246.252c-0.299-0.811,0.074,1.431-0.923,2.512
			C147.866,249.598,150.458,248.691,149.558,246.252z"/>
		<path style="fill:#1D3557;" d="M151.13,245.327c-0.057,0.359,0.023,1.236-0.696,2.229c-0.188,0.26,0.396,0.937,0.963-0.932
			C151.896,244.981,151.182,244.998,151.13,245.327z"/>
		<path style="fill:#1D3557;" d="M152.983,241.57c-0.459-0.603,0.469,1.333-0.239,2.863
			C152.331,245.327,154.367,243.388,152.983,241.57z"/>
		<path style="fill:#1D3557;" d="M126.806,249.367c-0.224-1.79-1.251-2.112-0.974-1.63c0.577,1.001,0.784,2.272,0.444,3.385
			C126.141,251.564,127.1,251.721,126.806,249.367z"/>
		<path style="fill:#1D3557;" d="M128.408,248.12c-0.812-2.31-1.715-2.899-0.618-0.485
			C128.602,249.422,128.786,249.195,128.408,248.12z"/>
		<path style="fill:#1D3557;" d="M129.835,246.159c-2.994-4.073-2.371-2.605-1.205-1.099
			C130.063,246.91,129.909,246.26,129.835,246.159z"/>
		<path style="fill:#1D3557;" d="M131.176,242.945c-1.222-2.129-3.168-2.515-2.559-1.898c0.234,0.236,1.378,0.535,2.338,2.03
			C131.044,243.217,131.259,243.09,131.176,242.945z"/>
		<path style="fill:#1D3557;" d="M130.079,239.264c0.874,0.922,0.904,1.334,1.185,1.08
			C131.875,239.793,126.963,235.982,130.079,239.264z"/>
		<path style="fill:#1D3557;" d="M131.964,237.066c-0.642-1.191-1.914-1.583-2.015-1.254c-0.13,0.425,0.984,0.206,1.794,1.386
			C131.837,237.335,132.044,237.213,131.964,237.066z"/>
		<path style="fill:#1D3557;" d="M139.193,150.712c-13.21,3.583-17.897,8.834-24.239,12.334c-5.493,3.031-4.231,0.255-11.93,4.835
			c-6.686,3.977-14.91,5.575-20.976,10.164c-7.201,5.447-8.404,13.524-11.789,20.878c-3.571,7.759-10.129,14.517-7.867,26.37
			c0.742,3.888,6.783,16.004,6.122,13.884c-2.072-6.645-9.088-13.779-4.744-26.317c2.332-6.732,1.704-1.449,10.827-23.523
			c4.985-12.064,8.799-11.659,31.863-22.988c1.993-0.979,4.36-0.925,6.433-1.763c7.528-3.046,10.893-9.183,26.422-13.398
			C139.619,151.106,139.499,150.628,139.193,150.712z"/>
		<path style="fill:#1D3557;" d="M80.164,171.35c-0.222-0.559-0.01-1.564-0.909-1.467c-1.209,0.13-0.903,2.244-2.182,0.106
			c-0.288-0.482-0.546,0.236-2.044,2.725c-0.14-0.404-0.429-1.46-0.702-0.926c-2.03,3.968-1.238,3.013-2.157,2.467
			c-0.566-0.337-1.487,2.771-1.639,3.482c-0.204-0.29-0.62-1.014-0.794-0.531c-3.649,10.094,4.634,16.649,3.34,15.196
			c-3.516-3.946-4.709-9.635-3.061-14.645c1.034,1.472,0.51,0.847,1.342-1.406c1.191-3.222,1.07,0.114,1.553-0.827
			c3.672-7.158-0.307,2.079,3.953-4.979c1.375,2.591,1.88-1.236,2.762,0.418c0.054,0.1,0.357,1.546,0.721,0.91
			c1.202-2.101,3.68,1.025,4.178,4.317c0.045,0.299,0.503,0.193,0.457-0.103C84.214,171.046,81.314,170.031,80.164,171.35z"/>
		<path style="fill:#1D3557;" d="M73.636,184.204c-0.69-0.811-0.791-1.636-0.648-2.662c0.145-1.044-1.328,0.914,0.38,2.85
			C73.505,184.548,73.774,184.366,73.636,184.204z"/>
		<path style="fill:#1D3557;" d="M74.173,180.942c-0.37-4.233-0.779,1.618,0.052,1.472
			C74.581,182.352,74.273,182.073,74.173,180.942z"/>
		<path style="fill:#1D3557;" d="M75.162,180.907c0.11,0.265,0.504,0.064,0.398-0.2c-0.417-1.029-0.26-2.116,0.177-3.109
			C76.199,176.547,74.011,178.126,75.162,180.907z"/>
		<path style="fill:#1D3557;" d="M115.602,258.526c-0.523-0.85-2.431-1.995-0.79-0.338c0.537,0.543,0.912,1.212,0.968,2.089
			C115.81,260.744,116.723,260.347,115.602,258.526z"/>
		<path style="fill:#1D3557;" d="M116.937,257.325c-2.577-2.221-2.046-1.164-1.495-0.713
			C117.431,258.246,117.038,257.413,116.937,257.325z"/>
		<path style="fill:#1D3557;" d="M117.483,254.715c-1.731-1.482-2.673-0.763-2.116-0.556c1.965,0.727,1.817,1.241,2.124,0.92
			C117.584,254.983,117.589,254.806,117.483,254.715z"/>
		<path style="fill:#1D3557;" d="M117.681,251.712c-1.762-1.672-3.487-0.227-2.659-0.373c0.834-0.147,1.791,0.039,2.457,0.601
			C117.63,252.067,117.824,251.847,117.681,251.712z"/>
		<path style="fill:#1D3557;" d="M117.445,228.473c-1.795-2.084-2.852-1.66-2.371-1.342c0.639,0.423,1.234,0.596,2.132,1.562
			C117.33,228.827,117.566,228.614,117.445,228.473z"/>
		<path style="fill:#1D3557;" d="M116.826,224.448c-2.344-0.11-3.074,0.478,0.024,0.327
			C117.043,224.766,117.07,224.46,116.826,224.448z"/>
		<path style="fill:#1D3557;" d="M115.705,221.892c0.907-0.017,1.255,0.4,1.366-0.001
			C117.392,220.736,111.93,221.963,115.705,221.892z"/>
		<path style="fill:#1D3557;" d="M116.148,218.074c-2.696-0.171-3.245,1.627-2.453,1.166c0.737-0.43,1.575-0.711,2.435-0.697
			C116.433,218.547,116.449,218.093,116.148,218.074z"/>
		<path style="fill:#1D3557;" d="M68.281,234.18c0.496-0.34-0.593-0.816-1.153,0.054c-1.15,1.788,2.215,3.93,1.887,2.434
			C68.602,234.777,68.58,234.413,68.281,234.18z"/>
		<path style="fill:#1D3557;" d="M66.351,232.231c-0.903-1.066-2.887-1.279-0.5,0.048C66.293,232.525,66.461,232.36,66.351,232.231z
			"/>
		<path style="fill:#1D3557;" d="M67.112,231.262c-1.064-1.533-3.45-1.379-1.726-0.745c0.424,0.156,0.855,0.403,1.43,0.975
			C66.983,231.659,67.254,231.466,67.112,231.262z"/>
		<g>
			<path style="fill:#1D3557;" d="M67.088,234.536c-0.001,0.01-0.001,0.018-0.001,0.038
				C67.087,234.556,67.088,234.542,67.088,234.536z"/>
			<path style="fill:#1D3557;" d="M67.54,235.115C67.512,235.114,67.518,235.114,67.54,235.115L67.54,235.115z"/>
			<path style="fill:#1D3557;" d="M66.435,233.822c-0.923,1.249,0.805,3.098,2.188,1.788
				C69.99,234.323,67.443,232.456,66.435,233.822z M67.441,235.108c-0.878-0.277-0.04-1.823,0.759-0.997
				C68.429,234.346,68.02,235.19,67.441,235.108z"/>
			<path style="fill:#1D3557;" d="M67.344,235.073c0.005,0.003,0.017,0.007,0.022,0.009
				C67.344,235.072,67.348,235.075,67.344,235.073z"/>
			<path style="fill:#1D3557;" d="M67.186,234.922c-0.003-0.005-0.009-0.013-0.013-0.019
				C67.18,234.914,67.177,234.909,67.186,234.922z"/>
		</g>
		<path style="fill:#1D3557;" d="M71.276,215.084c0.06-0.51-0.736-0.075-0.392,2.344c0.24,1.686,0.954,2.401,0.816,2.029
			C70.916,217.342,71.116,216.444,71.276,215.084z"/>
		<path style="fill:#1D3557;" d="M72.205,212.034c-0.006-0.104-0.267-0.914-0.246,3.261
			C71.96,215.433,72.441,216.372,72.205,212.034z"/>
		<path style="fill:#1D3557;" d="M73.367,209.483c0.202-0.884-1.132,0.534-0.354,3.291c0.078,0.277,0.463,0.169,0.379-0.11
			C73.077,211.612,73.124,210.544,73.367,209.483z"/>
		<path style="fill:#1D3557;" d="M75.102,205.505c-0.453,1.057-0.801,2.163-1.033,3.961
			C73.837,211.268,75.788,203.901,75.102,205.505z"/>
		<path style="fill:#1D3557;" d="M85.509,184.271c-0.49,2.669-0.241,5.271,0.147,1.663
			C85.906,183.613,85.528,184.169,85.509,184.271z"/>
		<path style="fill:#1D3557;" d="M86.907,183.108c-0.53,2.638-0.034,3.514,0.205,1.203
			C87.285,182.643,86.939,182.947,86.907,183.108z"/>
		<path style="fill:#1D3557;" d="M88.991,180.747c-1.351,4.424-0.409,5.044,0.359,0.097
			C89.382,180.639,89.054,180.539,88.991,180.747z"/>
		<path style="fill:#1D3557;" d="M152.714,228.956c-1.535-3.135-3.058-3.483-2.603-2.936c1.633,1.971,2.94,4.221,3.455,6.749
			C153.713,233.487,154.448,232.499,152.714,228.956z"/>
		<path style="fill:#1D3557;" d="M152.758,226.753c-1.471-2.24-2.046-1.99-1.864-1.58c0.152,0.341,1.548,1.347,2.579,3.959
			C153.58,229.403,154.591,229.548,152.758,226.753z"/>
		<path style="fill:#1D3557;" d="M153.221,224.406c-1.242-1.9-1.699-1.432-1.502-1.164c0.365,0.497,1.336,1.261,2.022,3.063
			C153.839,226.561,154.682,226.64,153.221,224.406z"/>
		<path style="fill:#1D3557;" d="M270.114,261.796c-3.146-21.53-20.296-39.244-17.049-34.298
			c8.546,13.023,22.605,31.54,14.58,59.098c-4.086-0.783-4.417-0.985-4.424-0.43c-0.06,5.093,0.608,10.143,1.981,15.042
			c-1.07-0.346-2.353,0.278-2.904,1.324c-1.385,2.629,1.569,5.477,0.327,8.096c-3.852-1.495-3.39-2.486-1.608,6.108
			c-0.962-0.315-4.414-1.082-4.028-0.059c2.316,6.14,2.918,4.86-1.915,6.023c-0.91,0.219,1.631,6.102,2.035,6.953
			c-4.282,1.235-5.964-0.063-6.06,0.746c-0.82,6.896,2.94,7.144-0.743,7.719c-1.282,0.2,2.373,1.609,1.367,4.226
			c-1.785,4.638-6.95-3.7-0.993,6.362c-10.293-0.841-10.405-4.011-8.944,3.879c1.379,7.449-6.632,8.286-13.241,8.64
			c-25.389,1.361-28.981-5.723-35.436-2.415c-0.985-3.543,0.037-5.575-0.988-5.009c-1.984,1.096-3.695,2.536-5.135,4.27
			c-0.87-6.311,5.19-10.673,10.713-12.035c6.607-1.629,15.749-0.045,15.997-10.316c0.622-25.856-12.344-47.809-13.118-46.57
			c-1.986,3.178,0.021,1.066-2.009-3.394c-0.336-0.739-0.721,0.385-2.016,2.986c-0.286-3.108-1.984-8.328-2.374-6.8
			c-2.049,8.027,2.222-3.683-9.785-13.062c-4.976-3.887-10.267-6.269-16.305-14.188c-3.44-4.513-7.122-12.563-6.475-10.882
			c7.852,20.39,20.886,21.026,27.633,30.741c5.709,8.218,2.863,17.581,5.254,8.281c2.743,6.335,0.336,10.567,3.773,3.692
			c1.866,4.757-0.424,8.038,2.551,3.29c6.514,10.814,10.593,23.03,11.854,35.595c2.373,23.633-5.254,15.94-17.895,20.75
			c-10.757,4.093-8.991,14.679-7.771,13.059c1.347-1.788,2.989-3.252,4.89-4.407c-0.045,1.199,0.214,5.41,1.141,4.855
			c6.265-3.75,9.155,3.915,37.494,2.09c5.727-0.369,12.108-1.708,12.079-7.501c-0.047-9.263-4.82-5.809,8.659-4.861
			c0.823,0.058,0.206-0.647-2.383-5.021c3.039,0.668,5.159-3.143,2.241-5.777c3.838-0.935-0.102-0.819,0.581-7.817
			c2.051,0.207,4.053,0.007,6.031-0.612c0.733-0.229-0.823-1.364-2.169-6.901c5.521-1.324,4.676,0.071,2.245-6.39
			c4.744,0.046,4.715,3.68,2.636-6.386c2.341,0.911,2.487,1.059,2.664,0.754c1.626-2.81-0.936-5.428-0.338-7.842
			c0.269-1.086,1.735-2.333,2.769-1.232c1.875,1.993-1.626-4.551-1.565-15.56c1.289,0.25,2.579,0.499,3.868,0.749
			C268.944,287.58,271.911,274.094,270.114,261.796z"/>
		<path style="fill:#1D3557;" d="M193.963,351.917c-2.265,2.56-1.159,2.889-0.885,2.516c0.642-0.875,2.076-4.638,7.894-5.197
			C202.665,349.075,197.698,347.694,193.963,351.917z"/>
		<path style="fill:#1D3557;" d="M202.325,352.778c-5.896,2.655-8.627,7.451-7.163,6.283c0.886-0.706,1.287-1.548,3.42-3.297
			C199.722,354.83,203.748,352.138,202.325,352.778z"/>
		<path style="fill:#1D3557;" d="M221.382,355.416c0.422,1.222,0.501,2.494,0.037,3.717c-0.107,0.283,0.342,0.417,0.449,0.136
			C223.081,356.073,220.973,354.233,221.382,355.416z"/>
		<path style="fill:#1D3557;" d="M225.563,358.108c-0.476-2.666-2.136-3.517-1.741-2.681c0.347,0.736,0.327,0.327,0.946,1.875
			c0.412,1.03,0.327,1.346,0.536,1.918C225.382,359.432,225.814,359.509,225.563,358.108z"/>
		<path style="fill:#1D3557;" d="M229.397,356.835c-0.33-1.782-1.274-1.803-1.007-1.38c0.556,0.878,0.781,2.024,0.572,3.043
			C228.86,358.999,229.712,358.537,229.397,356.835z"/>
		<path style="fill:#1D3557;" d="M243.697,345.047c-3.398-1.722-4.778-4.375-5.64-7.945c-0.32-1.319-1.1,1.443,1.461,4.977
			C242.271,345.878,244.633,345.521,243.697,345.047z"/>
		<path style="fill:#1D3557;" d="M244.711,341.965c-2.022-1.074-3.487-2.821-4.399-4.902c-0.596-1.36-0.515,2.818,4.157,5.275
			C244.72,342.471,244.965,342.1,244.711,341.965z"/>
		<path style="fill:#1D3557;" d="M247.166,338.39c-2.283-0.888-4.024-2.823-4.808-5.132c-0.063-0.187-0.34-0.093-0.29,0.096
			C243.457,338.476,248.767,339.012,247.166,338.39z"/>
		<path style="fill:#1D3557;" d="M223.147,318.603c-0.18,2.72-0.872,5.339-2.347,7.651c-0.128,0.201,0.165,0.43,0.299,0.227
			C224.512,321.292,223.247,317.08,223.147,318.603z"/>
		<path style="fill:#1D3557;" d="M225.574,319.658c-0.085,0.883,0.057,3.477-1.311,6.616c-0.145,0.333,0.555,1.025,1.477-3.175
			C226.524,319.538,225.629,319.092,225.574,319.658z"/>
		<path style="fill:#1D3557;" d="M227.7,320.364c-0.023-0.122-0.627-1.467,0.413,5.629
			C228.141,326.186,229.014,327.431,227.7,320.364z"/>
		<path style="fill:#1D3557;" d="M216.763,301.131c-1.483-3.008-1.629-6.499-0.543-9.662c0.072-0.211-0.237-0.356-0.321-0.142
			C213.246,298.005,217.731,303.094,216.763,301.131z"/>
		<path style="fill:#1D3557;" d="M217.295,293.446c-1.393,4.022,1.124,7.264,0.633,5.881
			C216.841,296.272,217.764,292.098,217.295,293.446z"/>
		<path style="fill:#1D3557;" d="M221.025,291.401c0.506-1.443-2.302,2.253-0.368,7.392c0.08,0.212,0.404,0.087,0.328-0.126
			C220.158,296.338,220.21,293.727,221.025,291.401z"/>
		<path style="fill:#1D3557;" d="M251.683,308.084c-3.711-3.357-4.902-6.678-5.829-11.498c-0.243-1.263-1.178,1.376,1.478,6.478
			C249.877,307.952,252.503,308.827,251.683,308.084z"/>
		<path style="fill:#1D3557;" d="M252.049,303.877c-2.763-3.142-3.444-6.791-3.498-6.958c-0.457-1.408-0.828,2.864,3.307,7.165
			C251.984,304.215,252.166,304.01,252.049,303.877z"/>
		<path style="fill:#1D3557;" d="M254.477,302.164c-2.709-3.464-2.819-9.1-2.922-7.296
			C251.229,300.52,255.612,303.616,254.477,302.164z"/>
		<path style="fill:#1D3557;" d="M203.783,268.975c-0.645,3.759-1.502,6.487-4.555,9.112c-1.448,1.243,5.287-2.654,4.973-9.13
			C204.188,268.704,203.82,268.757,203.783,268.975z"/>
		<path style="fill:#1D3557;" d="M206.362,269.659c-0.5,1.636-2.827,8.659-2.058,7.135
			C206.896,271.658,206.724,268.472,206.362,269.659z"/>
		<path style="fill:#1D3557;" d="M209.831,267.567c-0.412,1.956-2.778,10.017-1.994,8.181
			C210.647,269.194,210.078,266.393,209.831,267.567z"/>
		<path style="fill:#1D3557;" d="M181.486,244.128c-0.737,2.789-1.651,5.505-2.965,8.08c-0.11,0.216,0.237,0.357,0.346,0.144
			C182.039,246.182,181.81,242.906,181.486,244.128z"/>
		<path style="fill:#1D3557;" d="M182.931,247.256c-3.187,9.534-0.672,4.362,0.101,1.469
			C183.605,246.584,182.965,247.154,182.931,247.256z"/>
		<path style="fill:#1D3557;" d="M186.476,246.566c-0.994,2.806-1.413,7.156-1.032,5.706
			C186.994,246.357,186.695,245.951,186.476,246.566z"/>
		<path style="fill:#1D3557;" d="M164.021,220.382c-0.049,0.239,0.318,0.283,0.372,0.051c0.768-3.359,1.894-5.179,2.934-7.228
			C167.865,212.142,165.349,213.85,164.021,220.382z"/>
		<path style="fill:#1D3557;" d="M166.663,209.555c-4.347,3.725-4.426,8.314-3.997,7.057
			C164.089,212.447,168.06,208.358,166.663,209.555z"/>
		<path style="fill:#1D3557;" d="M161.621,211.635c-0.205,1.062,0.553-2.402,4.553-5.33
			C167.567,205.285,162.59,206.651,161.621,211.635z"/>
		<path style="fill:#1D3557;" d="M255.018,253.502c-1.902-3.391-2.355-2.494-2.135-2.192c1.261,1.729,2.181,2.849,3.083,5.188
			C256.055,256.729,256.984,257.008,255.018,253.502z"/>
		<path style="fill:#1D3557;" d="M256.652,251.435c-4.532-5.497-3.918-3.812-1.864-1.504
			C256.888,252.29,256.749,251.553,256.652,251.435z"/>
		<path style="fill:#1D3557;" d="M258.926,248.472c-3.534-4.858-7.441-6.491-6.464-5.462c0.981,1.034,2.835,1.899,6.133,5.761
			C258.785,248.992,259.091,248.699,258.926,248.472z"/>
		<path style="fill:#1D3557;" d="M235.957,213.755c-1.644-4.067-7.696-5.62-10.666-3.283c-1.236,0.973,2.738-1.122,6.018-0.17
			C234.651,211.272,236.251,214.483,235.957,213.755z"/>
		<path style="fill:#1D3557;" d="M234.249,208.026c-5.883-2.922-9.838,2.145-8.003,1.081c2.367-1.371,5.216-1.8,7.754-0.629
			C234.299,208.616,234.549,208.175,234.249,208.026z"/>
		<path style="fill:#1D3557;" d="M232.73,203.953c-6.407,2.604-7.286,3.287-8.889,2.231c-0.837-0.551-0.485,2.29,3.287,0.784
			C234.63,203.974,232.984,203.85,232.73,203.953z"/>
		<path style="fill:#1D3557;" d="M189.387,275.291c-0.088,1.964-0.525,3.837-1.277,5.634c-2.771-6.496-0.084-3.247-8.501,13.892
			c-1.78-1.813-2.277-2.546-2.528-1.904c-2.888,7.383-1.84,6.763-4.597,3.644c-0.501-0.566-0.557,0.095-3.171,7.472
			c-0.498-0.695-2.3-2.759-2.572-1.947c-1.935,5.785-0.661,3.967-2.578,1.741c-0.508-0.59-0.535,0.052-2.069,5.757
			c-2.191-2.812-2.962-4.082-3.131-3.164c-1.291,7.007-6.215,13.245-15.72,15.556c-5.083,1.236-3.648,5.871-6.506,8.404
			c-1.077-2.068-2.062-4.411-2.332-3.345c-1.769,6.987-0.799,7.057-3.219,1.014c-0.594-1.485-0.886,2.689-1.169,5.036
			c-0.717-1.782-1.433-3.564-2.149-5.347c-0.118-0.295-0.646-0.212-0.572,0.128c0.598,2.731,0.35,5.47-0.728,8.038
			c-20.816-12.236-20.523,4.485-38.367,12.902c-5.402,2.548-26.576,9.59-25.734-3.464c0.34-5.274,4.861-8.792,8.144-12.424
			c6.66-7.37,8.823-16.328,16.456-26.456c6.411-8.506,14.678-16.688,16.302-27.683c0.028-0.193-0.263-0.258-0.298-0.063
			c-2.609,14.524-14.463,21.446-23.544,38.702C68.081,339.168,63.794,336.08,62.1,343.643c-0.805,3.593,0.289,8.051,4.135,9.321
			c2.236,0.738,4.882,0.53,7.193,0.36c33.197-2.439,27.512-31.873,53.165-16.726c0.746,0.441,1.722-3.908,1.595-6.481
			c0.602,1.498,2.08,5.785,2.273,4.188c0.802-6.646,0.028-6.416,2.325-0.681c0.474,1.182,0.983-1.701,2.003-5.729
			c1.642,3.158,1.679,3.467,2.036,3.198c2.286-1.725,2.2-4.802,3.84-6.957c1.609-2.115,15.543-2.476,18.766-16.966
			c3.751,4.823,2.637,4.876,4.618-2.458c1.675,2.349,0.525,5.824,3.146-1.984c1.768,1.402,2.184,3.028,2.509,2.112
			c3.19-8.977,2.081-8.098,4.831-4.983c0.486,0.551,0.596-0.198,2.977-6.238c1.805,1.848,2.206,2.491,2.51,1.883
			c8.42-16.848,5.424-19.013,7.77-13.47c0.703,1.661,2.227-4.255,2.346-6.743C190.16,274.808,189.409,274.809,189.387,275.291z"/>
		<path style="fill:#1D3557;" d="M74.368,335.535c-2.759-3.59-9.378,4.402-1.765,9.553c0.292,0.198,0.663-0.202,0.368-0.427
			C69.958,342.36,77.442,339.537,74.368,335.535z M73.762,339.691c-0.798,1.077-2.193,2.319-1.909,4.093
			c-3.727-3.379-2.448-7.714,0.435-8.717C74.117,335.251,75.35,337.549,73.762,339.691z"/>
		<path style="fill:#1D3557;" d="M62.789,350.436c0.096-0.773-1.33,0.043-0.852,2.691c-3.686-3.582-2.37-8.179,0.724-9.405
			c1.478-0.584-3.347-0.508-3.5,4.494c-0.118,3.904,4.077,7.154,3.556,5.654C62.105,352.109,62.678,351.339,62.789,350.436z"/>
		<path style="fill:#1D3557;" d="M67.56,343.787c0.721-4.563-2.101-3.729-1.061-4.424c0.196-0.13-0.028-0.48-0.228-0.351
			c-1.953,1.266-3.164,3.572-2.951,5.914c0.41,4.508,5.342,6.21,4.18,4.855C66.031,348.067,67.259,345.696,67.56,343.787z
			 M65.835,339.982c3.034,2.024-0.547,6.118,0.653,9.201C61.258,345.712,65.278,339.607,65.835,339.982z"/>
		<path style="fill:#1D3557;" d="M97.949,331.342c2.14,4.665,1.36,8.225-0.792,10.731c-0.836,0.973,2.343-0.683,2.683-5.25
			C100.202,331.983,97.432,330.216,97.949,331.342z"/>
		<path style="fill:#1D3557;" d="M85.057,318.466c1.001-1.934-3.07,3.288-3.587,8.543c-0.595,6.041,3.461,8.105,2.502,6.966
			C79.958,329.21,82.397,323.609,85.057,318.466z"/>
		<path style="fill:#1D3557;" d="M86.715,333.294c-2-2.644-2.59-6.236-1.128-9.268c0.099-0.205-0.221-0.344-0.321-0.142
			C82.043,330.335,87.925,334.894,86.715,333.294z"/>
		<path style="fill:#1D3557;" d="M90.247,330.758c-2.407-1.627-3.411-3.87-3.215-6.172c0.019-0.224-0.325-0.282-0.347-0.056
			C86.111,330.317,91.793,331.804,90.247,330.758z"/>
		<path style="fill:#1D3557;" d="M106.551,315.135c-2.438-6.775-9.158-5.344-7.303-5.274c3.76,0.143,6.556,3.18,7.256,6.733
			c0.352,1.785,0.087,3.549-0.041,5.341c-0.33,4.646,1.286,4.901,1.053,4.281C105.879,321.869,108.183,319.67,106.551,315.135z"/>
		<path style="fill:#1D3557;" d="M111.211,326.655c-2.193-4.619-0.764-9.645-3.031-13.825c-0.101-0.186-0.366,0.005-0.269,0.189
			c1.17,2.212,1.277,4.743,1.448,7.187C109.818,326.798,111.514,327.294,111.211,326.655z"/>
		<path style="fill:#1D3557;" d="M116.064,325.91c-2.433-2.361-3.893-4.843-3.925-8.319c-0.01-1.144-1.344,0.623,0.644,4.788
			C114.636,326.262,116.864,326.686,116.064,325.91z"/>
		<path style="fill:#1D3557;" d="M141.737,303.892c-0.538-1.792,1.698,7.11,0.679,14.712
			C142.06,321.26,144.676,313.673,141.737,303.892z"/>
		<path style="fill:#1D3557;" d="M145.282,312.435c-0.942-6.868-2.021-7.796-1.824-7.031c0.414,1.607,2.742,10.772,1.171,12.133
			C144.324,317.8,146.096,318.369,145.282,312.435z"/>
		<path style="fill:#1D3557;" d="M145.129,301.423c-0.121-0.167-0.426,0-0.321,0.187c2.069,3.717,3.233,6.986,3.11,11.444
			C147.847,315.579,149.645,307.684,145.129,301.423z"/>
		<path style="fill:#1D3557;" d="M167.579,282.208c-0.063-0.199-0.413-0.11-0.359,0.095c0.918,3.53,1.458,7.139,1.399,10.791
			C168.587,295.008,170.077,290.066,167.579,282.208z"/>
		<path style="fill:#1D3557;" d="M170.316,283.636c-0.075-0.199-0.369-0.091-0.309,0.111c0.735,2.474,1.159,5.011,1.069,7.597
			C171.025,292.809,172.417,289.238,170.316,283.636z"/>
		<path style="fill:#1D3557;" d="M173.303,279.776c-2.434-6.754-4.144-7.477-3.644-6.493c2.382,4.697,4.152,7.783,5.111,14.244
			C174.912,288.484,175.955,287.131,173.303,279.776z"/>
		<path style="fill:#1D3557;" d="M121.668,278.055c-1.296,10.822-4.231,16.299-3.522,14.909
			C123.081,283.276,121.978,275.484,121.668,278.055z"/>
		<path style="fill:#1D3557;" d="M123.513,280.162c-0.3,2.688,0.031,3.954-0.929,9.458c-0.044,0.254,0.351,0.295,0.396,0.044
			C124.675,280.359,123.632,279.088,123.513,280.162z"/>
		<path style="fill:#1D3557;" d="M126.605,280.838c-0.257-3.38-0.719-2.542-0.714-2.36
			C126.38,295.826,126.763,282.911,126.605,280.838z"/>
		<path style="fill:#1D3557;" d="M151.745,270.86c-1.2-4.274-1.053-5.824-0.534-8.808c0.175-1.01-2.099,0.74-0.007,8.403
			c0.811,2.972,2.163,5.925,2.025,9.062C153.22,279.734,154.488,280.629,151.745,270.86z"/>
		<path style="fill:#1D3557;" d="M154.036,260.613c0.156-1.889-2.249,4.901,1.374,14.371c0.081,0.211,0.407,0.086,0.328-0.126
			C154.012,270.246,153.634,265.49,154.036,260.613z"/>
		<path style="fill:#1D3557;" d="M157.438,258.084c-3.254,6.65,1.61,14.139,0.563,11.614
			C155.352,263.313,158.477,255.961,157.438,258.084z"/>
		<path style="fill:#1D3557;" d="M443.032,290.935c-8.979-27.116-8.595-58.594-22.676-82.841
			c-6.286-10.825-14.241-15.275-21.755-27.67c-24.091-39.743-51.586-50.882-83.88-51.23c-30.653-0.33-65.658,9.234-105.121,7.081
			c-0.792-0.043-0.632,0.315,1.199,0.521c5.917,0.667,24.961,0.964,50.738-1.664c38.866-3.963,95.333-21.056,137.338,46.747
			c5.366,8.66,10.034,12.696,15.083,19.165c17.533,22.464,18.612,52.845,25.725,80.347c4.509,17.428,12.036,30.15,11.778,44.256
			c-0.603,32.924-38.435,29.244-41.705,23.85c-3.897-6.431,5.447-5.853,7.384-9.288c2.043-3.622-1.225-7.817-5.197-6.767
			c-0.945,0.25-0.469,0.604-1.509-0.642c-6.173-7.411,2.563,3.908-12.782-8.751c-30.144-24.864-57.677-41.534-56.511-80.574
			c0.012-0.421-0.641-0.488-0.653-0.064c-1.181,39.609,26.009,55.767,60.989,84.658c7.748,6.398,3.663-0.574,9.374,6.289
			c0.327,0.394,3.265-1.603,5.42,1.074c1.298,1.612,0.971,4.192-0.612,5.489c-2.116,1.733-5.619,1.509-6.957,4.225
			c-5.652,11.465,35.348,15.388,42.184-11.061C454.743,319.152,447.622,304.8,443.032,290.935z"/>
		<path style="fill:#1D3557;" d="M358.934,290.307c-0.015-0.347-0.554-0.328-0.539,0.019c0.049,1.131,0.099,2.262,0.148,3.394
			c-0.492-0.259-1.175-0.182-1.639,0.21c-1.423,1.202,0.195,3.624-1.182,4.769c-0.766-1.535-2.886-2.777-3.028-2.071
			c-1.445,7.207,0.668,3.644-5.991,1.36c-0.156-0.053-0.332,0.1-0.322,0.257c0.084,1.386-0.841,2.713-2.236,3.012
			c-2.486,0.531-4.161-3.192-6.965-2.559c-1.8,0.406-1.445,2.558-2.826,3.448c-5.434,3.501-7.887-7.954-9.011,0.865
			c-0.947,7.424-11.961-7.078-11.077-3.837c0.435,1.598-1.54,2.266-2.715,1.876c-0.971-0.322-1.729-1.086-2.49-1.728
			c-5.866-4.952-5.03,4.125-12.393-3.382c-5.419-5.524-5.165-0.672-6.879-0.645c-1.463,0.023-8.12-8.085-8.46-7.487
			c-1.792,3.14-1.672,3.416-2.514,2.805c-3.256-2.363-5.82-5.31-7.784-8.802c-1.096-1.944,0.772,4.476,8.384,9.676
			c0.468,0.32,1.361-3.077,2.255-3.107c0.236-0.008,0.502,0.505,2.708,2.723c8.785,8.834,5.159,2.068,8.757,2.706
			c3.028,0.537,4.89,6.264,9.179,5.724c2.222-0.28,2.638-3.191,6.705,0.328c3.479,3.008,5.682,1.439,5.742-0.227
			c6.742,5.35,7.32,6.082,8.892,6.068c3.232-0.029,1.538-5.849,3.165-5.728c0.472,0.035,0.651,0.97,2.714,2.279
			c2.741,1.738,5.466,0.801,6.277-1.128c2.342-5.568,5.281,2.184,9.111,0.405c1.164-0.541,1.908-1.655,1.975-2.905
			c6.417,2.383,4.659,6.374,6.263-1.565c1.028,0.376,1.793,1.081,2.22,2.118c0.211,0.513,1.559-0.066,1.454-2.69
			c-0.078-1.959,1.368-3.37,1.757-1.906c0.079,0.297,0.54,0.215,0.527-0.088C359.055,293.097,358.994,291.702,358.934,290.307z"/>
		<path style="fill:#1D3557;" d="M270.917,281.895c-0.481-1.299,0.339,5.167-1.254,1.72c-1.572-3.393-1.212-1.444-0.459,0.107
			C271.353,288.151,271.133,282.476,270.917,281.895z"/>
		<path style="fill:#1D3557;" d="M338.673,299.699c-0.074-0.417-0.722-0.313-0.648,0.103c0.765,4.289,1.149,8.636,1.095,12.994
			c-0.058,4.634-0.247,2.385-1.08,3.929c-0.826,1.53,0.589,2.211-1.416,0.76c-0.973-0.704-0.915,3.953-0.763,5.154
			c-2.055-1.037-2.556-1.423-2.622-0.881c-0.579,4.781,2.551,6.156-2.129,2.619c-0.824-0.622-0.303,1.324,0.364,5.438
			c-1.559-2.002-2.58-2.059-2.438-1.49c2.402,9.639,2.993,8.377-1.358,5.444c-1.162-0.783,0.395,2.66-0.396,9.324
			c-1.203,10.131-9.592,9.144-20.51,8.545c-13.879-0.761-33.002,2.903-42.752,1.792c-6.667-0.76-7.898-6.617-4.887-11.265
			c6.395-9.87,27.771,2.079,17.649-28.644c-2.927-8.886-4.424-18.366-2.074-27.389c0.492-1.885-2.97,4.863-1.052,17.056
			c1.194,7.59,3.359,12.281,4.609,16.683c5.296,18.643-11.461,15.411-16.947,19.082c-3.47,2.322-5.498,7.168-3.824,11.163
			c3.717,8.87,28.347,1.098,48.996,2.191c10.404,0.551,19.926,1.369,21.327-8.206c1.51-10.327-2.432-11.08,3.449-7.131
			c0.985,0.661,0.235-1.39-1.422-7.946c0.771,0.607,1.395,1.339,1.869,2.236c0.147,0.277,0.646,0.229,0.585-0.14
			c-1.214-7.331-1.944-6.582,1.988-3.6c1.156,0.877-0.729-2.011-0.474-5.24c4.535,2.298,1.717,1.341,2.833-4.017
			c4.325,3.14-0.155-0.575,2.796-2.033C340.574,315.674,339.203,302.699,338.673,299.699z"/>
		<path style="fill:#1D3557;" d="M210.454,136.284c-3.544-0.438-3.289,0.081-1.527-2.07c0.76-0.928-1.994-0.002-4.12,0.563
			c0.622-0.949,1.824-2.452,0.999-2.336c-5.407,0.755-5.806,2.88-3.697-0.771c0.383-0.664-0.846-0.326-6.177,0.372
			c0.429-0.715,0.84-2.528,0.104-2.39c-7.882,1.473-7.346,3.537-5.738-1.063c0.359-1.029-4.913,1.139-5.745,1.511
			c0.267-2.133,0.531-2.989,0.046-2.933c-10.196,1.176-9.355,6.181-7.95-2.35c0.268-1.635-7.266,5.508-8.455,6.698
			c-0.104-6.053,0.065-7.168-0.576-6.63c-8.199,6.871-4.309,12.664-7.962,1.935c-0.325-0.954-3.809,3.221-3.509,8.227
			c-2.627-3.912-3.424-5.417-3.598-4.568c-2.027,9.871,0.974,9.534-3.179,7.558c-0.525-0.25-0.385,0.36-0.383,3.924
			c-2.199-0.826-2.901-1.231-2.76-0.596c1.013,4.585,1.764,3.852-3.898,2.604c-0.708-0.156-0.035,0.982,0.803,2.958
			c-7.203-1.448-2.401-1.169-4.611,4.031c-0.094,0.223,0.249,0.365,0.347,0.144c2.197-4.997-2.303-5.088,4.602-3.608
			c0.662,0.142,0.08-0.853-0.779-2.916c4.438,0.98,5.058,1.283,4.929,0.699c-0.949-4.303-1.398-3.802,1.566-2.688
			c0.454,0.171,0.322-0.564,0.321-3.909c4.559,2.171,1.649,2.01,3.442-7.452c7.043,10.497,0.632,2.697,6.351-3.805
			c3.972,11.676,0.442,5.163,8.257-1.768c0.173,10.333-1.602,7.402,8.448-0.258c-1.475,8.947-1.921,3.675,8.29,2.371
			c-0.602,4.79-1.343,2.848,5.305,1.161c-1.885,5.389-1.918,2.922,6.247,1.327c0.029,2.694-3.963,2.874,5.49,1.641
			c-2.749,4.754-1.457,2.129,3.9,1.211c-1.942,2.963-2.445,2.784,2.713,1.417c-1.883,2.306-1.991,1.764,2.444,2.269
			C210.682,136.825,210.744,136.32,210.454,136.284z"/>
		<path style="fill:#1D3557;" d="M168.619,133.958c-2.694,3.724-2.074,6.415-1.815,5.397c0.49-1.925,0.813-3.295,2.139-5.164
			C169.09,133.982,168.769,133.749,168.619,133.958z"/>
		<path style="fill:#1D3557;" d="M172.163,135.675c-3.645,3.198-3.185,6.7-2.834,5.432c0.537-1.945,1.587-3.767,3.087-5.124
			C172.604,135.813,172.357,135.505,172.163,135.675z"/>
		<path style="fill:#1D3557;" d="M177.099,136.793c-6.045,5.56-4.52,4.792-4.42,4.705
			C176.693,138.011,177.751,136.195,177.099,136.793z"/>
		<path style="fill:#1D3557;" d="M142.166,149.786c-0.034-0.189-0.334-0.18-0.304,0.015c0.226,1.473-0.252,2.926-1.181,4.075
			C139.823,154.933,142.809,153.362,142.166,149.786z"/>
		<path style="fill:#1D3557;" d="M144.905,150.813c-2.863,4.82-2.662,5.305,0.322,0.142
			C145.34,150.758,145.019,150.621,144.905,150.813z"/>
		<path style="fill:#1D3557;" d="M145.877,154.909c-0.145,0.232,0.112,1.055,1.488-1.408
			C148.361,151.718,149.192,149.631,145.877,154.909z"/>
		<path style="fill:#1D3557;" d="M197.054,181.919c-5.141,7.281-3.481,15.624-3.44,13.695c0.103-4.967,0.912-8.652,3.739-13.468
			C197.471,181.943,197.197,181.716,197.054,181.919z"/>
		<path style="fill:#1D3557;" d="M198.676,183.279c-2.43,5.327-1.482,10.108-1.459,8.482
			C197.283,187.516,199.302,181.905,198.676,183.279z"/>
		<path style="fill:#1D3557;" d="M200.77,183.35c-0.058-0.226-0.413-0.198-0.372,0.046c0.404,2.444,0.531,4.855,0.102,7.307
			C200.25,192.131,202.152,188.701,200.77,183.35z"/>
		<path style="fill:#1D3557;" d="M245.71,140.275c-0.178-0.048-0.234,0.216-0.065,0.274c0.357,0.121,0.009,0.699-0.136,0.864
			c-2.587,2.944-8.532,4.479-6.799,4.211C243.177,144.931,247.546,140.768,245.71,140.275z"/>
		<path style="fill:#1D3557;" d="M246.274,143.995c-1.389,0.769-7.31,3.22-5.765,2.872c2.098-0.471,4.094-1.428,5.965-2.475
			C246.724,144.253,246.526,143.855,246.274,143.995z"/>
		<path style="fill:#1D3557;" d="M250.577,145.622c-3.554,2.157-5.957,2.664-7.106,3.216c-0.268,0.129-0.695,1.224,3.876-0.994
			C251.663,145.75,250.806,145.483,250.577,145.622z"/>
		<path style="fill:#1D3557;" d="M309.44,138.019c-1.038,1.861-2.965,3.267-6.08,3.472c-1.792,0.118,3.774,1.661,6.401-3.329
			C309.868,137.96,309.549,137.824,309.44,138.019z"/>
		<path style="fill:#1D3557;" d="M307.398,136.028c-2.045,1.828-3.671,2.019-4.501,2.374c-0.438,0.188-0.223,1.065,2.652-0.463
			C308.736,136.246,307.681,135.775,307.398,136.028z"/>
		<path style="fill:#1D3557;" d="M303.711,134.061c-5.113,2.519-4.896,3.092,0.162,0.364
			C304.095,134.305,303.943,133.946,303.711,134.061z"/>
		<path style="fill:#1D3557;" d="M228.922,250.466c-0.51-1.258,0.56,4.53,5.869,6.18
			C236.106,257.052,230.781,255.064,228.922,250.466z"/>
		<path style="fill:#1D3557;" d="M234.922,252.067c-1.664-0.581-2.737-1.685-3.18-3.005c-0.324-0.965-0.65,1.602,1.877,3.021
			C235.098,252.914,235.209,252.168,234.922,252.067z"/>
		<path style="fill:#1D3557;" d="M235.323,249.267c-0.521-0.321-1.742-0.632-2.698-2.065c-0.411-0.616-1.26,0.653,1.63,2.133
			C235.429,249.938,235.538,249.4,235.323,249.267z"/>
		<path style="fill:#1D3557;" d="M275.208,343.012c-6.581-2.354-12.799,3.704-10.788,10.399c0.156,0.521,0.95,0.225,0.792-0.293
			c-1.847-6.044,3.914-11.531,9.853-9.734C275.307,343.457,275.452,343.099,275.208,343.012z"/>
		<path style="fill:#1D3557;" d="M424.58,343.883c-1.558-2.039-7.004,0.973-5.825,6.434c0.679,3.148,2.563,3.417,2.3,2.582
			c-0.289-0.918-0.976-1.081-1.36-2.798c-0.744-3.322,1.511-6.251,3.839-6.147C423.716,343.963,424.968,344.389,424.58,343.883z"/>
		<path style="fill:#1D3557;" d="M310.75,327.696c-2.301-3.501-4.544-8.607-4.102-7.251
			C308.685,326.703,311.447,328.758,310.75,327.696z"/>
		<path style="fill:#1D3557;" d="M314.59,327.65c-1.734-0.962-3.22-2.714-3.596-4.864c-0.139-0.797-0.972,0.518,0.885,3.069
			C313.399,327.943,315.387,328.092,314.59,327.65z"/>
		<path style="fill:#1D3557;" d="M317.077,325.085c-1.374-0.764-2.364-1.795-2.789-3.342c-0.321-1.17-0.521,2.431,2.646,3.664
			C317.148,325.49,317.273,325.194,317.077,325.085z"/>
		<path style="fill:#1D3557;" d="M285.981,300.638c-2.35,3.935,0.501,9.532-0.429,4.892c-0.317-1.582-0.048-3.257,0.777-4.654
			C286.467,300.644,286.121,300.404,285.981,300.638z"/>
		<path style="fill:#1D3557;" d="M289.988,306.948c-0.08-0.185-2.015-2.337-1.159-5.398c0.216-0.77-1.229-0.183-0.55,2.964
			C288.889,307.337,290.292,307.65,289.988,306.948z"/>
		<path style="fill:#1D3557;" d="M294.36,306.662c-1.153-0.987-2.196-2.36-2.737-3.806c-0.124-0.331-0.914-0.179,0.818,2.3
			C293.729,306.999,294.778,307.02,294.36,306.662z"/>
		<path style="fill:#1D3557;" d="M285.716,327.633c-2.117,4.682-3.411,9.83-5.647,7.981c-0.163-0.135-0.368,0.11-0.211,0.251
			C283.332,338.978,286.686,325.492,285.716,327.633z"/>
		<path style="fill:#1D3557;" d="M287.449,330.484c-0.526,1.81-1.102,3.585-2.007,5.246c-0.101,0.185,0.216,0.37,0.323,0.185
			C288.316,331.5,287.772,329.378,287.449,330.484z"/>
		<path style="fill:#1D3557;" d="M290.373,330.849c-0.323,2.053-0.518,3.385-1.742,5.238c-0.167,0.254,0.225,0.49,0.399,0.246
			C291.821,332.419,290.594,329.45,290.373,330.849z"/>
		<path style="fill:#1D3557;" d="M209.767,156.726c-3.32-2.989-6.992-2.059-5.697-1.861c0.9,0.137,3.144,0.025,5.506,2.067
			C209.712,157.051,209.902,156.848,209.767,156.726z"/>
		<path style="fill:#1D3557;" d="M206.172,151.328c-3.633,0.421-5.25,1.141,0.035,0.35
			C206.429,151.644,206.397,151.302,206.172,151.328z"/>
		<path style="fill:#1D3557;" d="M205.116,148.154c-5.897,1.162-5.622,2.072-5.11,1.914c1.403-0.434,2.329-0.98,5.178-1.596
			C205.362,148.433,205.297,148.118,205.116,148.154z"/>
		<path style="fill:#1D3557;" d="M323.53,274.078c-1.156-1.699,3.862,6.851,5.456,14.556
			C329.397,290.632,329.084,282.244,323.53,274.078z"/>
		<path style="fill:#1D3557;" d="M329.798,280.306c-3.046-5.588-3.854-5.032-3.53-4.532c0.812,1.256,3.516,4.27,5.57,10.073
			C332.043,286.427,332.833,285.871,329.798,280.306z"/>
		<path style="fill:#1D3557;" d="M331.819,276.937c-0.123-0.173-0.381,0.01-0.269,0.189c1.271,2.018,2.221,4.255,2.714,6.59
			C334.559,285.111,335.295,281.854,331.819,276.937z"/>
		<path style="fill:#1D3557;" d="M287.745,267.638c-1.757-7.114-2.149-5.761-2.081-5.539c1.068,3.47,2.104,6.048,2.942,11.794
			C288.656,274.235,289.579,275.064,287.745,267.638z"/>
		<path style="fill:#1D3557;" d="M289.905,263.662c-0.064-0.128-0.292-0.034-0.235,0.101
			C294.629,275.575,296.312,276.553,289.905,263.662z"/>
		<path style="fill:#1D3557;" d="M294.483,265.423c-0.097-0.201-0.409-0.088-0.328,0.127
			C297.668,274.857,298.436,273.674,294.483,265.423z"/>
		<path style="fill:#1D3557;" d="M307.662,232.512c-2.585-1.507,6.116,4.166,9.667,12.023
			C318.685,247.535,316.176,237.472,307.662,232.512z"/>
		<path style="fill:#1D3557;" d="M320.683,239.148c-4.892-5.806-8.451-6.778-7.334-5.954c2.834,2.09,4.641,3.372,7.106,6.153
			C320.569,239.475,320.794,239.281,320.683,239.148z"/>
		<path style="fill:#1D3557;" d="M320.321,233.553c-3.359-3.795-5.158-3.652-4.492-3.202c1.546,1.042,2.685,1.759,4.196,3.432
			C320.185,233.962,320.482,233.735,320.321,233.553z"/>
		<path style="fill:#1D3557;" d="M321.656,227.682c-1.922-2.688-5.258-2.26-4.031-1.873c1.32,0.416,1.938,0.374,3.817,2.051
			C321.556,227.963,321.751,227.816,321.656,227.682z"/>
		<path style="fill:#1D3557;" d="M415.621,323.819c-0.116-0.15-0.401-0.014-0.305,0.168c1.129,2.147,1.471,4.293,0.551,6.506
			C415.164,332.182,418.613,327.705,415.621,323.819z"/>
		<path style="fill:#1D3557;" d="M420.308,326.983c-0.024-0.303-0.577-1.549-0.371,5.99
			C419.963,333.957,420.71,331.995,420.308,326.983z"/>
		<path style="fill:#1D3557;" d="M421.939,324.186c-0.08-0.214-0.396-0.088-0.328,0.126c0.878,2.767,1.311,5.731,1.276,8.634
			C422.866,334.552,424.329,330.614,421.939,324.186z"/>
		<path style="fill:#1D3557;" d="M442.247,323.474c-0.109-0.212-0.44-0.083-0.346,0.143c1.377,3.324,2.324,6.77,2.51,10.376
			C444.522,336.145,445.755,330.299,442.247,323.474z"/>
		<path style="fill:#1D3557;" d="M446.411,327.292c-0.085-0.163-0.362-0.019-0.289,0.15c0.856,1.975,1.456,4.068,1.627,6.218
			C447.845,334.864,448.746,331.787,446.411,327.292z"/>
		<path style="fill:#1D3557;" d="M448.598,323.813c-0.042-0.1-0.959-1.574,1.824,5.703
			C450.46,329.616,451.729,331.283,448.598,323.813z"/>
		<path style="fill:#1D3557;" d="M374.849,285.05c-0.695,8.851,3.686,16.353,2.925,14.381
			C374.936,292.057,375.046,282.539,374.849,285.05z"/>
		<path style="fill:#1D3557;" d="M379.065,289.565c-0.03-0.102-0.88-1.93,1.803,8.138
			C380.895,297.805,381.953,299.41,379.065,289.565z"/>
		<path style="fill:#1D3557;" d="M382.538,288.9c-0.055-0.229-0.412-0.197-0.372,0.046
			C383.892,299.381,384.905,298.644,382.538,288.9z"/>
		<path style="fill:#1D3557;" d="M300.014,202.65c-5.151-8.986-15.062-8.849-12.469-8.348
			C296.47,196.028,300.873,204.15,300.014,202.65z"/>
		<path style="fill:#1D3557;" d="M303.327,198.502c-6.338-7.77-14.535-8.188-12.349-7.54c4.712,1.397,8.926,3.928,12.066,7.749
			C303.188,198.885,303.471,198.678,303.327,198.502z"/>
		<path style="fill:#1D3557;" d="M304.523,190.917c-6.085-3.729-10.826-3.555-9.233-3.224c3.169,0.657,6.246,1.815,9.014,3.498
			C304.494,191.307,304.716,191.035,304.523,190.917z"/>
		<path style="fill:#1D3557;" d="M353.919,172.319c6.894,6.052,7.694,13.185,7.448,11.68
			C359.875,174.865,352.629,171.187,353.919,172.319z"/>
		<path style="fill:#1D3557;" d="M368.954,180.421c-4.587-7.209-10.022-9.611-8.762-8.712c3.356,2.396,6.275,5.413,8.508,8.881
			C368.806,180.755,369.059,180.587,368.954,180.421z"/>
		<path style="fill:#1D3557;" d="M375.115,174.926c-3.722-6.564-9.667-7.693-7.86-6.789
			C372.561,170.795,375.665,175.896,375.115,174.926z"/>
		<path style="fill:#1D3557;" d="M371.766,237.79c-0.1-0.22-0.431-0.083-0.347,0.144c0.926,2.469,0.974,5.16-0.042,7.61
			C370.685,247.215,374.253,243.265,371.766,237.79z"/>
		<path style="fill:#1D3557;" d="M376.443,236.459c-0.085-0.147-0.34-0.027-0.271,0.132c1.117,2.595,1.578,4.826,1.042,7.614
			C376.881,245.934,379.141,241.117,376.443,236.459z"/>
		<path style="fill:#1D3557;" d="M380.814,237.072c-0.078-0.128-0.279-0.016-0.204,0.116c0.706,1.235,0.925,2.776,0.56,4.153
			C380.968,242.097,382.397,239.682,380.814,237.072z"/>
		<path style="fill:#1D3557;" d="M384.157,232.277c-0.073-0.2-0.367-0.091-0.309,0.111
			C385.983,239.816,386.445,238.601,384.157,232.277z"/>
		<path style="fill:#1D3557;" d="M419.072,253.955c-0.846-1.245,3.108,5.275,2.18,11.934
			C421.007,267.636,423.569,260.581,419.072,253.955z"/>
		<path style="fill:#1D3557;" d="M425.439,258.27c-0.54-1.72-1.519-3.049-2.203-3.599c-1.61-1.293,2.799,2.492,2.229,7.697
			C425.37,263.228,426.576,261.896,425.439,258.27z"/>
		<path style="fill:#1D3557;" d="M429.68,258.098c-2.495-5.232-3.727-6.837-0.381,0.18
			C429.415,258.523,429.797,258.343,429.68,258.098z"/>
		<path style="fill:#1D3557;" d="M414.878,214.311c-3.191-0.199-5.274-1.361-7.715-3.377c-0.653-0.539-0.532,1.103,3.353,2.78
			C414.412,215.397,415.768,214.367,414.878,214.311z"/>
		<path style="fill:#1D3557;" d="M414.177,211.18c-1.144-0.106-2.181-0.638-3.046-1.379c-0.126-0.107-0.343,0.062-0.227,0.199
			C412.932,212.404,415.326,211.286,414.177,211.18z"/>
		<path style="fill:#1D3557;" d="M414.161,207.589c-2.537-0.045-1.707,0.523-0.699,0.505
			C414.823,208.069,414.38,207.593,414.161,207.589z"/>
	</g>
</g>
</svg>
